<svg width="16" height="16" viewBox="0 0 16 16" fill="none" xmlns="http://www.w3.org/2000/svg">
<path d="M8 7.35984C8 7.52962 8.06745 7.69245 8.1875 7.8125C8.30755 7.93255 8.47038 8 8.64017 8H16C16 9.05058 15.7927 10.0909 15.3906 11.0615C14.9886 12.0321 14.4 12.9144 13.6572 13.6572C12.9144 14.4 12.0321 14.9886 11.0615 15.3906C10.0909 15.7927 9.05058 16 8 16V8.64183C8 8.47161 7.93238 8.30836 7.81201 8.18799C7.69164 8.06762 7.52839 8 7.35817 8H0C0 6.94943 0.207337 5.90908 0.609375 4.93848C1.01141 3.96795 1.59995 3.08559 2.34277 2.34277C3.08559 1.59995 3.96795 1.01141 4.93848 0.609375C5.90908 0.207337 6.94943 0 8 0V7.35984ZM0 8C1.05058 8 2.09092 8.20734 3.06152 8.60938C4.03205 9.01141 4.91441 9.59995 5.65723 10.3428C6.40005 11.0856 6.98859 11.9679 7.39062 12.9385C7.79266 13.9091 8 14.9494 8 16C3.58172 16 0 12.4183 0 8ZM8 0C12.4183 3.86258e-07 16 3.58172 16 8C14.9494 8 13.9091 7.79266 12.9385 7.39062C11.9679 6.98859 11.0856 6.40005 10.3428 5.65723C9.59995 4.91441 9.01141 4.03205 8.60938 3.06152C8.20734 2.09092 8 1.05057 8 0Z" fill="black"/>
</svg>
